<svg width="27" height="27" viewBox="0 0 27 27" fill="none" xmlns="http://www.w3.org/2000/svg">
<g clip-path="url(#clip0_46_219)">
<path d="M6.2947 3.32723C9.21119 5.54773 12.3482 10.05 13.5 12.4662C14.6518 10.0502 17.7886 5.54769 20.7052 3.32723C22.8096 1.72501 26.2193 0.485297 26.2193 4.43012C26.2193 5.21796 25.7739 11.0483 25.5126 11.9949C24.6046 15.2857 21.2958 16.1251 18.3526 15.6171C23.4973 16.5051 24.8061 19.4464 21.9796 22.3878C16.6116 27.9741 14.2643 20.9862 13.6625 19.1957C13.5522 18.8674 13.5006 18.7139 13.4999 18.8444C13.4991 18.7139 13.4475 18.8674 13.3373 19.1957C12.7358 20.9862 10.3885 27.9743 5.02017 22.3878C2.19368 19.4464 3.5024 16.5049 8.64723 15.6171C5.70389 16.1251 2.39504 15.2857 1.48714 11.9949C1.2259 11.0483 0.780518 5.21787 0.780518 4.43012C0.780518 0.485297 4.19025 1.72501 6.29455 3.32723H6.2947Z" fill="#1185FE"/>
</g>
<defs>
<clipPath id="clip0_46_219">
<rect width="26.3158" height="26.3158" fill="white" transform="translate(0.342102)"/>
</clipPath>
</defs>
</svg>
