<svg width="32" height="32" viewBox="0 0 32 32" fill="none" xmlns="http://www.w3.org/2000/svg">
<path d="M21.9916 17.9353C21.8266 17.9153 21.6566 17.8953 21.4916 17.8703C21.6616 17.8903 21.8266 17.9153 21.9916 17.9353ZM16.0016 14.5553C14.6966 12.0203 11.1466 7.29532 7.84656 4.96532C4.68156 2.73032 3.47656 3.11532 2.68156 3.47532C1.76656 3.89032 1.60156 5.29532 1.60156 6.12032C1.60156 6.94532 2.05656 12.9003 2.35156 13.8953C3.32656 17.1803 6.80656 18.2903 10.0116 17.9303C10.1766 17.9053 10.3416 17.8853 10.5116 17.8603C10.3466 17.8853 10.1816 17.9103 10.0116 17.9303C5.31656 18.6303 1.14656 20.3403 6.61656 26.4253C12.6316 32.6553 14.8566 25.0903 16.0016 21.2553C17.1466 25.0903 18.4616 32.3803 25.2816 26.4253C30.4016 21.2553 26.6866 18.6253 21.9916 17.9303C21.8266 17.9103 21.6566 17.8903 21.4916 17.8653C21.6616 17.8853 21.8266 17.9103 21.9916 17.9303C25.1966 18.2853 28.6716 17.1753 29.6516 13.8953C29.9466 12.9003 30.4016 6.95032 30.4016 6.12032C30.4016 5.29032 30.2366 3.88532 29.3216 3.47532C28.5316 3.12032 27.3216 2.73032 24.1616 4.96532C20.8566 7.29532 17.3066 12.0203 16.0016 14.5553Z" fill="white"/>
</svg>
