<svg width="32" height="32" viewBox="0 0 32 32" fill="none" xmlns="http://www.w3.org/2000/svg">
<path fill-rule="evenodd" clip-rule="evenodd" d="M26.6697 25.7226H22.0964V18.3632C22.0964 16.514 21.4367 15.2518 19.7796 15.2518C18.517 15.2518 17.7662 16.103 17.4344 16.9262C17.3131 17.2185 17.2832 17.6269 17.2832 18.0398V25.7226H12.708C12.708 25.7226 12.7696 13.2564 12.708 11.966H17.2832V13.9158C17.8913 12.9801 18.9755 11.6426 21.4053 11.6426C24.4145 11.6426 26.6697 13.6097 26.6697 17.8332V25.7226ZM7.89238 10.0887H7.86406C6.32867 10.0887 5.33594 9.03322 5.33594 7.71213C5.33594 6.36311 6.3589 5.33594 7.92453 5.33594C9.48825 5.33594 10.4507 6.36311 10.4806 7.71213C10.4806 9.03322 9.48825 10.0887 7.89238 10.0887ZM5.60742 25.7234H10.1792V11.9668H5.60742V25.7234Z" fill="white"/>
</svg>
