<svg width="27" height="27" viewBox="0 0 27 27" fill="none" xmlns="http://www.w3.org/2000/svg">
<g clip-path="url(#clip0_46_222)">
<path d="M24.3732 0H1.94262C1.4274 0 0.933291 0.204668 0.56898 0.56898C0.204668 0.933291 0 1.4274 0 1.94262V24.3732C0 24.8884 0.204668 25.3825 0.56898 25.7468C0.933291 26.1111 1.4274 26.3158 1.94262 26.3158H24.3732C24.8884 26.3158 25.3825 26.1111 25.7468 25.7468C26.1111 25.3825 26.3158 24.8884 26.3158 24.3732V1.94262C26.3158 1.4274 26.1111 0.933291 25.7468 0.56898C25.3825 0.204668 24.8884 0 24.3732 0ZM7.84357 22.4178H3.88706V9.85015H7.84357V22.4178ZM5.86257 8.10855C5.41378 8.10603 4.97578 7.97061 4.60388 7.71939C4.23197 7.46818 3.94281 7.11242 3.77289 6.69703C3.60298 6.28163 3.55992 5.82521 3.64916 5.38537C3.73839 4.94552 3.95592 4.54197 4.27429 4.22564C4.59266 3.90931 4.9976 3.69437 5.43801 3.60796C5.87842 3.52155 6.33455 3.56754 6.74885 3.74012C7.16315 3.91269 7.51704 4.20413 7.76586 4.57764C8.01468 4.95116 8.14728 5.39001 8.14693 5.83882C8.15116 6.13929 8.09486 6.43754 7.98137 6.71579C7.86789 6.99405 7.69954 7.2466 7.48637 7.45841C7.2732 7.67021 7.01957 7.83693 6.7406 7.94863C6.46162 8.06033 6.16301 8.11472 5.86257 8.10855ZM22.4269 22.4287H18.4722V15.5629C18.4722 13.538 17.6115 12.913 16.5004 12.913C15.3271 12.913 14.1758 13.7975 14.1758 15.614V22.4287H10.2193V9.85928H14.0241V11.6009H14.0753C14.4572 10.8279 15.795 9.50658 17.8363 9.50658C20.0439 9.50658 22.4287 10.8169 22.4287 14.6546L22.4269 22.4287Z" fill="#0A66C2"/>
</g>
<defs>
<clipPath id="clip0_46_222">
<rect width="26.3158" height="26.3158" fill="white"/>
</clipPath>
</defs>
</svg>
