<svg width="27" height="27" viewBox="0 0 27 27" fill="none" xmlns="http://www.w3.org/2000/svg">
<g clip-path="url(#clip0_46_225)">
<path fill-rule="evenodd" clip-rule="evenodd" d="M10.3328 0C8.87806 0.00107302 7.70075 1.17925 7.70182 2.63104C7.70075 4.08284 8.87913 5.26101 10.3338 5.26209H12.9658V2.63212C12.9669 1.18032 11.7885 0.00214604 10.3328 0C10.3338 0 10.3338 0 10.3328 0ZM10.3328 7.01754H3.31622C1.86152 7.01862 0.683132 8.19679 0.684207 9.64859C0.682057 11.1004 1.86044 12.2786 3.31514 12.2807H10.3328C11.7875 12.2796 12.9658 11.1015 12.9648 9.64966C12.9658 8.19679 11.7875 7.01862 10.3328 7.01754Z" fill="#36C5F0"/>
<path fill-rule="evenodd" clip-rule="evenodd" d="M27 9.64859C27.0011 8.19679 25.8227 7.01862 24.368 7.01754C22.9133 7.01862 21.735 8.19679 21.736 9.64859V12.2807H24.368C25.8227 12.2796 27.0011 11.1015 27 9.64859ZM19.9824 9.64859V2.63104C19.9835 1.18032 18.8062 0.00214604 17.3515 0C15.8968 0.00107302 14.7184 1.17925 14.7195 2.63104V9.64859C14.7173 11.1004 15.8957 12.2786 17.3504 12.2807C18.8051 12.2796 19.9835 11.1015 19.9824 9.64859Z" fill="#2EB67D"/>
<path fill-rule="evenodd" clip-rule="evenodd" d="M17.3504 26.3158C18.8051 26.3148 19.9835 25.1366 19.9824 23.6848C19.9835 22.233 18.8051 21.0548 17.3504 21.0537H14.7184V23.6848C14.7173 25.1355 15.8957 26.3137 17.3504 26.3158ZM17.3504 19.2972H24.368C25.8227 19.2961 27.0011 18.118 27 16.6662C27.0022 15.2144 25.8238 14.0362 24.3691 14.0341H17.3515C15.8968 14.0351 14.7184 15.2133 14.7195 16.6651C14.7184 18.118 15.8957 19.2961 17.3504 19.2972Z" fill="#ECB22E"/>
<path fill-rule="evenodd" clip-rule="evenodd" d="M0.684205 16.6661C0.68313 18.1179 1.86151 19.296 3.31621 19.2971C4.77091 19.296 5.9493 18.1179 5.94822 16.6661V14.035H3.31621C1.86151 14.0361 0.68313 15.2143 0.684205 16.6661ZM7.70182 16.6661V23.6836C7.69967 25.1354 8.87805 26.3136 10.3328 26.3157C11.7875 26.3147 12.9658 25.1365 12.9648 23.6847V16.6682C12.9669 15.2164 11.7885 14.0383 10.3338 14.0361C8.87805 14.0361 7.70075 15.2143 7.70182 16.6661Z" fill="#E01E5A"/>
</g>
<defs>
<clipPath id="clip0_46_225">
<rect width="26.3158" height="26.3158" fill="white" transform="translate(0.684204)"/>
</clipPath>
</defs>
</svg>
