<svg width="32" height="32" viewBox="0 0 32 32" fill="none" xmlns="http://www.w3.org/2000/svg">
<path d="M8.0013 20C8.0013 20.7072 7.72035 21.3855 7.22025 21.8856C6.72016 22.3857 6.04188 22.6667 5.33464 22.6667C4.62739 22.6667 3.94911 22.3857 3.44902 21.8856C2.94892 21.3855 2.66797 20.7072 2.66797 20C2.66797 19.2928 2.94892 18.6145 3.44902 18.1144C3.94911 17.6143 4.62739 17.3333 5.33464 17.3333H8.0013V20ZM9.33463 20C9.33463 19.2928 9.61559 18.6145 10.1157 18.1144C10.6158 17.6143 11.2941 17.3333 12.0013 17.3333C12.7085 17.3333 13.3868 17.6143 13.8869 18.1144C14.387 18.6145 14.668 19.2928 14.668 20V26.6667C14.668 27.3739 14.387 28.0522 13.8869 28.5523C13.3868 29.0524 12.7085 29.3333 12.0013 29.3333C11.2941 29.3333 10.6158 29.0524 10.1157 28.5523C9.61559 28.0522 9.33464 27.3739 9.33463 26.6667V20ZM12.0013 9.33333C11.2941 9.33333 10.6158 9.05238 10.1157 8.55228C9.61559 8.05219 9.33464 7.37391 9.33463 6.66667C9.33463 5.95942 9.61559 5.28115 10.1157 4.78105C10.6158 4.28095 11.2941 4 12.0013 4C12.7085 4 13.3868 4.28095 13.8869 4.78105C14.387 5.28115 14.668 5.95942 14.668 6.66667V9.33333H12.0013ZM12.0013 10.6667C12.7085 10.6667 13.3868 10.9476 13.8869 11.4477C14.387 11.9478 14.668 12.6261 14.668 13.3333C14.668 14.0406 14.387 14.7189 13.8869 15.219C13.3868 15.719 12.7085 16 12.0013 16H5.33464C4.62739 16 3.94911 15.719 3.44902 15.219C2.94892 14.7189 2.66797 14.0406 2.66797 13.3333C2.66797 12.6261 2.94892 11.9478 3.44902 11.4477C3.94911 10.9476 4.62739 10.6667 5.33464 10.6667H12.0013ZM22.668 13.3333C22.668 12.6261 22.9489 11.9478 23.449 11.4477C23.9491 10.9476 24.6274 10.6667 25.3346 10.6667C26.0419 10.6667 26.7202 10.9476 27.2203 11.4477C27.7203 11.9478 28.0013 12.6261 28.0013 13.3333C28.0013 14.0406 27.7203 14.7189 27.2203 15.219C26.7202 15.719 26.0419 16 25.3346 16H22.668V13.3333ZM21.3346 13.3333C21.3346 14.0406 21.0537 14.7189 20.5536 15.219C20.0535 15.719 19.3752 16 18.668 16C17.9607 16 17.2824 15.719 16.7824 15.219C16.2823 14.7189 16.0013 14.0406 16.0013 13.3333V6.66667C16.0013 5.95942 16.2823 5.28115 16.7824 4.78105C17.2824 4.28095 17.9607 4 18.668 4C19.3752 4 20.0535 4.28095 20.5536 4.78105C21.0537 5.28115 21.3346 5.95942 21.3346 6.66667V13.3333ZM18.668 24C19.3752 24 20.0535 24.281 20.5536 24.781C21.0537 25.2811 21.3346 25.9594 21.3346 26.6667C21.3346 27.3739 21.0537 28.0522 20.5536 28.5523C20.0535 29.0524 19.3752 29.3333 18.668 29.3333C17.9607 29.3333 17.2824 29.0524 16.7824 28.5523C16.2823 28.0522 16.0013 27.3739 16.0013 26.6667V24H18.668ZM18.668 22.6667C17.9607 22.6667 17.2824 22.3857 16.7824 21.8856C16.2823 21.3855 16.0013 20.7072 16.0013 20C16.0013 19.2928 16.2823 18.6145 16.7824 18.1144C17.2824 17.6143 17.9607 17.3333 18.668 17.3333H25.3346C26.0419 17.3333 26.7202 17.6143 27.2203 18.1144C27.7203 18.6145 28.0013 19.2928 28.0013 20C28.0013 20.7072 27.7203 21.3855 27.2203 21.8856C26.7202 22.3857 26.0419 22.6667 25.3346 22.6667H18.668Z" fill="white"/>
</svg>
