<svg preserveAspectRatio="none" width="100%" height="100%" overflow="visible" style="display: block;" viewBox="0 0 35.71 48.2979" fill="none" xmlns="http://www.w3.org/2000/svg">
<g id="Logo">
<path id="Union" d="M0.000976562 11.7695C0.000978997 11.5438 0.255315 11.4012 0.450195 11.5147C1.44526 12.0947 4.05772 13.4412 7.9375 14.168L7.94141 33.1084C7.94177 33.3253 8.17624 33.4653 8.36719 33.3623C9.96764 32.4994 15.8571 29.5798 22.1582 29.6484C23.6731 29.6649 25.1364 29.8404 26.5049 30.1084L26.5068 40.8193C26.5067 40.912 26.4616 40.9987 26.3828 41.0479C25.5947 41.5391 21.0711 44.1273 13.2578 44.1309C10.1482 44.1324 7.55999 43.7224 5.52051 43.1992L0.478516 48.2158C0.302015 48.3914 0.00201149 48.2668 0.00195312 48.0176L0 41.0986C3.45837e-05 41.0477 0.014323 41.0002 0.0380859 40.959C0.0182226 40.9207 0.00783777 40.8768 0.0078125 40.832L0.000976562 11.7695Z" fill="var(--fill-0, #3199EE)"/>
<path id="Union_2" d="M22.1621 6.0804e-06C30.5592 -0.00515476 34.9231 3.27652 35.5996 3.83008C35.6611 3.88049 35.6934 3.95441 35.6934 4.03419L35.6953 30.1709C35.6998 30.1902 35.7038 30.2099 35.7041 30.2305C35.704 30.2316 35.7032 30.2333 35.7031 30.2344L35.71 38.0303C35.7099 38.2897 35.3875 38.4111 35.2148 38.2168L28.4346 30.5898L28.3447 30.4893C28.3458 30.4905 28.3466 30.492 28.3477 30.4932L28.498 30.6621C27.862 30.4884 27.1959 30.3293 26.5068 30.1943L26.5049 11.8389C26.5049 11.6132 26.2513 11.4707 26.0566 11.584C24.6603 12.4006 20.0756 14.734 13.2695 14.7383C11.3077 14.7395 9.52953 14.5471 7.95996 14.2529L7.95898 4.06348C7.95897 3.9769 7.99631 3.89723 8.06641 3.84669C8.83993 3.29084 13.7672 0.00521034 22.1621 6.0804e-06Z" fill="var(--fill-0, #03AA19)"/>
<path id="Vector" fill-rule="evenodd" clip-rule="evenodd" d="M7.92919 14.2238L7.93843 33.1546C7.93855 33.3717 8.17349 33.5117 8.36485 33.409C9.96782 32.5469 15.8662 29.6299 22.178 29.7004C23.6956 29.7172 25.1611 29.8928 26.532 30.161L26.5232 11.8186C26.5231 11.5929 26.268 11.4504 26.0728 11.5641C24.673 12.3797 20.0771 14.7093 13.2524 14.711C11.2852 14.7114 9.50311 14.5184 7.92919 14.2238Z" fill="var(--fill-0, #1165B2)"/>
</g>
</svg>
