<svg preserveAspectRatio="none" width="100%" height="100%" overflow="visible" style="display: block;" viewBox="0 0 32.1357 43.4521" fill="none" xmlns="http://www.w3.org/2000/svg">
<g id="Logo">
<path id="Union" d="M0.00390625 10.5774C0.00418007 10.3744 0.233877 10.2467 0.40918 10.3489C1.30509 10.8711 3.65628 12.0826 7.14746 12.7366L7.15137 29.7825C7.1515 29.9779 7.36223 30.1038 7.53418 30.011C8.9748 29.2342 14.2746 26.6075 19.9453 26.6692C21.3087 26.684 22.6257 26.8411 23.8574 27.0823L23.8604 36.7229C23.8603 36.8062 23.8189 36.8837 23.748 36.928C23.039 37.3699 18.9678 39.6992 11.9355 39.7024C9.13481 39.7037 6.80395 39.3349 4.96777 38.8635L0.430664 43.3782C0.271921 43.536 0.00237095 43.4244 0.00195312 43.2004L0 36.9729C9.14788e-06 36.9254 0.0133308 36.881 0.0361328 36.843C0.019864 36.8098 0.0107993 36.7729 0.0107422 36.7346L0.00390625 10.5774Z" fill="var(--fill-0, #3199EE)"/>
<path id="Union_2" d="M19.9492 5.58705e-06C27.5078 -0.0046883 31.4359 2.94969 32.0439 3.44727C32.0992 3.49265 32.128 3.55908 32.1279 3.63086L32.1289 27.2041L32.1299 27.2051V27.208L32.1357 34.2246C32.1358 34.4581 31.8458 34.5675 31.6904 34.3926L25.6455 27.5938C25.075 27.4381 24.4783 27.2958 23.8604 27.1748L23.8584 10.6553C23.8584 10.452 23.6293 10.3233 23.4541 10.4258C22.1972 11.1608 18.0715 13.2608 11.9463 13.2647C10.1806 13.2658 8.58058 13.0919 7.16797 12.8272L7.16699 3.65723C7.16697 3.57928 7.20055 3.50741 7.26367 3.46192C7.95983 2.96167 12.394 0.00479349 19.9492 5.58705e-06Z" fill="var(--fill-0, #03AA19)"/>
<path id="Vector" fill-rule="evenodd" clip-rule="evenodd" d="M7.14096 12.7991L7.14927 29.8368C7.14939 30.0322 7.36083 30.1582 7.53305 30.0657C8.97573 29.2898 14.2842 26.6646 19.9649 26.728C21.3308 26.7431 22.6497 26.9012 23.8835 27.1425L23.8755 10.6344C23.8754 10.4312 23.6459 10.303 23.4702 10.4054C22.2104 11.1393 18.074 13.2361 11.9318 13.2375C10.1614 13.2379 8.55749 13.0642 7.14096 12.7991Z" fill="var(--fill-0, #1165B2)"/>
</g>
</svg>
